<svg width="185" height="85" viewBox="0 0 185 85" fill="none" xmlns="http://www.w3.org/2000/svg">
<g clip-path="url(#clip0_137_110)">
<path d="M170.352 27.0855C165.008 25.708 162.828 24.0802 162.828 21.4975C162.828 18.5079 165.803 16.0661 169.464 16.0661C173.124 16.0661 176.037 18.461 176.084 21.4193L181.505 16.0348C180.2 14.0358 178.409 12.4036 176.303 11.2919C174.196 10.1801 171.842 9.62537 169.464 9.67994C161.955 9.67994 155.865 14.9861 155.865 21.4975C155.865 28.8229 162.781 31.5621 169.542 33.2525C174.371 34.4734 177.33 35.8978 177.33 39.1848C177.33 42.4718 173.825 45.1171 169.542 45.1171C165.258 45.1171 161.644 42.4561 161.644 39.1848V37.6195L155.787 43.7866C157.999 48.2476 163.311 51.3937 169.495 51.3937C177.657 51.3937 184.309 45.8997 184.309 39.1378C184.278 33.0021 180.243 29.4959 170.352 27.0855Z" fill="#2BB673"/>
<path d="M143.387 14.7046C140.278 12.6905 136.649 11.6399 132.95 11.6837C131.573 11.6799 130.2 11.8216 128.853 12.1063H128.666C128.401 12.1063 128.168 12.2315 127.919 12.2942C124.407 13.1474 121.183 14.9186 118.572 17.4282L118.697 0.476562H112.357V32.2667C112.36 36.8 113.854 41.2051 116.607 44.7972C119.359 48.3892 123.215 50.967 127.576 52.1296L128.433 52.3488L128.931 52.4427C129.507 52.5522 130.084 52.6461 130.66 52.7088H130.832C131.486 52.7088 132.14 52.8183 132.81 52.8183C135.485 52.8363 138.136 52.3036 140.599 51.2531C144.097 49.8081 147.128 47.415 149.352 44.3407C151.577 41.2665 152.908 37.6318 153.197 33.8419C153.486 30.052 152.722 26.256 150.99 22.8769C149.258 19.4978 146.626 16.6686 143.387 14.7046ZM144.633 39.4511C143.433 41.6508 141.662 43.483 139.509 44.7533C137.356 46.0237 134.901 46.685 132.405 46.6669C130.536 46.7021 128.681 46.349 126.955 45.6298C125.228 44.9107 123.669 43.841 122.373 42.4877C121.03 41.1085 119.977 39.4722 119.276 37.6761C118.575 35.8799 118.24 33.9605 118.292 32.0319C118.26 29.4581 118.888 26.9194 120.114 24.6596C121.343 22.4804 123.149 20.6868 125.333 19.4786C127.511 18.2127 129.982 17.5435 132.498 17.5377C134.946 17.5408 137.348 18.2116 139.446 19.4786C141.627 20.7699 143.42 22.6306 144.633 24.8631C145.904 27.0818 146.573 29.597 146.573 32.1571C146.573 34.7172 145.904 37.2324 144.633 39.4511Z" fill="#2BB673"/>
<path d="M97.9792 31.7812H106.734V31.0455C106.852 26.0688 105.281 21.1998 102.279 17.2401C100.352 14.7174 97.8547 12.6919 94.9943 11.331C92.1338 9.9701 88.9921 9.31294 85.8288 9.41385C82.7456 9.32064 79.6849 9.96955 76.902 11.3064C74.119 12.6433 71.6946 14.6295 69.8308 17.0992C67.3313 20.3057 65.7603 24.1427 65.2903 28.1883C64.8204 32.2338 65.4697 36.3313 67.167 40.03C66.4738 41.0177 65.6745 41.9258 64.7837 42.7379C63.4323 43.8797 61.8859 44.7654 60.2195 45.3518C58.4498 46.0123 56.5773 46.3515 54.6895 46.3536C52.8576 46.3891 51.0384 46.0399 49.3485 45.3283C47.6586 44.6168 46.1352 43.5585 44.8757 42.2214C42.3931 39.5882 40.9433 36.1409 40.7944 32.5168V16.4418H46.6671V9.66429H40.7944V0.898926H34.1428V31.2334C34.1428 31.9534 34.1428 32.689 34.2519 33.3934C34.7022 38.0197 36.5938 42.3852 39.6572 45.8684C43.3647 50.2041 48.552 52.3954 55.0945 52.3954C57.7981 52.4326 60.4856 51.9711 63.0234 51.0337C65.3679 50.1302 67.5196 48.7863 69.3635 47.0736C69.8749 46.5793 70.3585 46.0567 70.8122 45.5084C72.7405 47.609 75.1045 49.2585 77.7369 50.3404C80.3694 51.4223 83.2062 51.9101 86.0469 51.7694C88.7722 51.8697 91.4924 51.4611 94.0693 50.5641C96.4154 49.6355 98.5663 48.2707 100.409 46.5414C102.722 44.5042 104.226 41.698 104.646 38.637H98.7114C97.8733 39.9384 96.8735 41.1271 95.7361 42.1744C94.3883 43.3129 92.8475 44.1983 91.1875 44.7884C89.4162 45.4412 87.5442 45.775 85.6575 45.7745C83.8245 45.8113 82.0039 45.4642 80.3117 44.7555C78.6194 44.0468 77.0925 42.9919 75.8281 41.6579C73.3214 38.9728 71.8758 35.461 71.7624 31.7812H97.9792ZM76.5447 19.2592C79.1024 16.9359 82.4437 15.6769 85.8911 15.7374C88.0719 15.7322 90.2267 16.2133 92.2 17.1462C94.066 17.9743 95.7102 19.2348 96.9979 20.8245C98.1737 22.3851 99.0361 24.1608 99.537 26.0524H72.4945C73.2035 23.4188 74.6021 21.0244 76.5447 19.1184V19.2592Z" fill="#2BB673"/>
<path d="M21.4156 9.6802H21.1663C18.4609 9.65263 15.7774 10.1701 13.2743 11.202C10.7712 12.2339 8.49926 13.7593 6.59267 15.6882C4.68609 17.6171 3.1835 19.9104 2.17366 22.4325C1.16382 24.9546 0.667197 27.6545 0.713123 30.3727C0.675597 33.0857 1.17843 35.7788 2.19203 38.2937C3.20563 40.8085 4.70954 43.0943 6.61527 45.0165C8.521 46.9387 10.7901 48.4585 13.289 49.4865C15.7879 50.5145 18.4662 51.03 21.1663 51.0026H22.0698H29.656V44.3034H21.4156C21.3327 44.2946 21.2492 44.2946 21.1663 44.3034C19.3679 44.3138 17.5862 43.9564 15.9296 43.2529C14.273 42.5494 12.7762 41.5146 11.5303 40.2114C10.2843 38.9083 9.31534 37.364 8.68223 35.6725C8.04912 33.9811 7.76515 32.1779 7.8476 30.3727C7.77186 28.5692 8.06047 26.7689 8.696 25.0804C9.33153 23.392 10.3008 21.8504 11.5454 20.5486C12.79 19.2468 14.2841 18.2119 15.9377 17.5061C17.5912 16.8003 19.3698 16.4383 21.1663 16.4421H29.656V9.66455H21.4156V9.6802Z" fill="#2BB673"/>
<path d="M25.9175 29.4336C27.9823 29.4336 29.6561 27.7517 29.6561 25.677C29.6561 23.6023 27.9823 21.9204 25.9175 21.9204C23.8528 21.9204 22.179 23.6023 22.179 25.677C22.179 27.7517 23.8528 29.4336 25.9175 29.4336Z" fill="#2BB673"/>
<path d="M25.9175 39.2788C27.9823 39.2788 29.6561 37.5969 29.6561 35.5222C29.6561 33.4475 27.9823 31.7656 25.9175 31.7656C23.8528 31.7656 22.179 33.4475 22.179 35.5222C22.179 37.5969 23.8528 39.2788 25.9175 39.2788Z" fill="#2BB673"/>
</g>
<defs>
<clipPath id="clip0_137_110">
<rect width="184.302" height="83.5988" fill="white" transform="translate(0.348877 0.421387)"/>
</clipPath>
</defs>
</svg>
