<svg width="60" height="15" viewBox="0 0 60 15" fill="none" xmlns="http://www.w3.org/2000/svg">
<path d="M2.36006 14.02H0.146063V0.394019H3.60206C5.67206 0.394019 6.23006 1.51002 6.23006 5.00202C6.23006 8.51202 5.69006 9.77202 3.60206 9.77202H2.36006V14.02ZM2.36006 7.57602H3.22406C3.76406 7.57602 3.99806 7.01802 3.99806 4.94802C3.99806 3.00402 3.72806 2.62602 3.17006 2.62602H2.36006V7.57602ZM14.4313 14.02H12.1093C12.0013 13.75 11.9653 13.534 11.8393 12.328C11.7673 11.644 11.7313 10.69 11.5873 9.64602C11.4433 8.65602 11.2993 8.49402 10.8853 8.49402H10.2913V14.02H8.07731V0.394019H11.5873C13.6753 0.394019 14.1973 1.40202 14.1973 4.06602C14.1973 7.07202 13.7293 7.23402 13.1353 7.54002V7.64802C13.4953 7.90002 13.6573 8.35002 13.8013 9.07002C13.9993 10.096 14.0353 11.032 14.1793 12.364C14.2873 13.408 14.3413 13.66 14.4313 13.948V14.02ZM10.2913 6.49602H11.0473C11.6233 6.49602 11.9653 6.46002 11.9653 4.31802C11.9653 2.62602 11.6053 2.59002 11.1553 2.59002H10.2913V6.49602ZM21.3139 14.02H16.2019V0.394019H21.3319V2.64402H18.4159V5.99202H21.2779V8.13402H18.4159V11.662H21.3139V14.02ZM28.6166 4.62402H26.7806C26.7986 4.42602 26.8166 4.21002 26.8166 3.77802C26.8166 2.73402 26.7086 2.32002 25.9346 2.32002C25.2686 2.32002 25.0886 2.50002 25.0886 3.79602C25.0886 4.94802 25.1066 5.05602 25.4666 5.38002C26.0246 5.86602 27.2486 6.37002 27.8246 6.76602C28.6886 7.36002 28.9046 7.72002 28.9046 10.168C28.9046 13.534 28.1666 14.254 25.8806 14.254C23.8826 14.254 23.0906 13.678 23.0906 10.87C23.0906 10.294 23.1446 9.79002 23.2166 9.46602H25.0706C25.0346 9.66402 25.0346 9.91602 25.0346 10.258C25.0346 11.752 25.2326 12.004 25.9166 12.004C26.6366 12.004 26.8526 11.842 26.8526 10.132C26.8526 9.14202 26.8166 8.99802 26.4566 8.63802C25.8266 8.00802 24.4766 7.54002 23.7926 6.91002C23.1986 6.37002 23.0726 5.95602 23.0726 3.47202C23.0726 0.898019 23.7566 0.160019 25.9346 0.160019C28.2026 0.160019 28.7426 0.916019 28.7426 3.13002C28.7426 3.88602 28.7066 4.30002 28.6166 4.62402ZM35.9108 14.02H30.7988V0.394019H35.9288V2.64402H33.0128V5.99202H35.8748V8.13402H33.0128V11.662H35.9108V14.02ZM44.1855 14.02H43.0335L40.0095 5.63202H39.9195V14.02H37.9035V0.394019H40.2075L42.0615 6.20802H42.1515V0.394019H44.1855V14.02ZM50.0014 14.02H47.7874V2.64402H45.8614V0.394019H51.9094V2.64402H50.0014V14.02ZM58.7595 4.62402H56.9235C56.9415 4.42602 56.9595 4.21002 56.9595 3.77802C56.9595 2.73402 56.8515 2.32002 56.0775 2.32002C55.4115 2.32002 55.2315 2.50002 55.2315 3.79602C55.2315 4.94802 55.2495 5.05602 55.6095 5.38002C56.1675 5.86602 57.3915 6.37002 57.9675 6.76602C58.8315 7.36002 59.0475 7.72002 59.0475 10.168C59.0475 13.534 58.3095 14.254 56.0235 14.254C54.0255 14.254 53.2335 13.678 53.2335 10.87C53.2335 10.294 53.2875 9.79002 53.3595 9.46602H55.2135C55.1775 9.66402 55.1775 9.91602 55.1775 10.258C55.1775 11.752 55.3755 12.004 56.0595 12.004C56.7795 12.004 56.9955 11.842 56.9955 10.132C56.9955 9.14202 56.9595 8.99802 56.5995 8.63802C55.9695 8.00802 54.6195 7.54002 53.9355 6.91002C53.3415 6.37002 53.2155 5.95602 53.2155 3.47202C53.2155 0.898019 53.8995 0.160019 56.0775 0.160019C58.3455 0.160019 58.8855 0.916019 58.8855 3.13002C58.8855 3.88602 58.8495 4.30002 58.7595 4.62402Z" fill="#6B6B6B"/>
</svg>
